G04 #@! TF.GenerationSoftware,KiCad,Pcbnew,(5.1.2)-1*
G04 #@! TF.CreationDate,2019-05-12T20:46:33-04:00*
G04 #@! TF.ProjectId,Demo2,44656d6f-322e-46b6-9963-61645f706362,rev?*
G04 #@! TF.SameCoordinates,PX80fd3d8PY55fe290*
G04 #@! TF.FileFunction,Soldermask,Top*
G04 #@! TF.FilePolarity,Negative*
%FSLAX46Y46*%
G04 Gerber Fmt 4.6, Leading zero omitted, Abs format (unit mm)*
G04 Created by KiCad (PCBNEW (5.1.2)-1) date 2019-05-12 20:46:33*
%MOMM*%
%LPD*%
G04 APERTURE LIST*
%ADD10C,0.100000*%
G04 APERTURE END LIST*
D10*
G36*
X19216823Y5283687D02*
G01*
X19377242Y5235024D01*
X19509906Y5164114D01*
X19525078Y5156004D01*
X19654659Y5049659D01*
X19761004Y4920078D01*
X19761005Y4920076D01*
X19840024Y4772242D01*
X19888687Y4611823D01*
X19905117Y4445000D01*
X19888687Y4278177D01*
X19840024Y4117758D01*
X19769114Y3985094D01*
X19761004Y3969922D01*
X19654659Y3840341D01*
X19525078Y3733996D01*
X19525076Y3733995D01*
X19377242Y3654976D01*
X19216823Y3606313D01*
X19091804Y3594000D01*
X19008196Y3594000D01*
X18883177Y3606313D01*
X18722758Y3654976D01*
X18574924Y3733995D01*
X18574922Y3733996D01*
X18445341Y3840341D01*
X18338996Y3969922D01*
X18330886Y3985094D01*
X18259976Y4117758D01*
X18211313Y4278177D01*
X18194883Y4445000D01*
X18211313Y4611823D01*
X18259976Y4772242D01*
X18338995Y4920076D01*
X18338996Y4920078D01*
X18445341Y5049659D01*
X18574922Y5156004D01*
X18590094Y5164114D01*
X18722758Y5235024D01*
X18883177Y5283687D01*
X19008196Y5296000D01*
X19091804Y5296000D01*
X19216823Y5283687D01*
X19216823Y5283687D01*
G37*
G36*
X11596823Y5283687D02*
G01*
X11757242Y5235024D01*
X11889906Y5164114D01*
X11905078Y5156004D01*
X12034659Y5049659D01*
X12141004Y4920078D01*
X12141005Y4920076D01*
X12220024Y4772242D01*
X12268687Y4611823D01*
X12285117Y4445000D01*
X12268687Y4278177D01*
X12220024Y4117758D01*
X12149114Y3985094D01*
X12141004Y3969922D01*
X12034659Y3840341D01*
X11905078Y3733996D01*
X11905076Y3733995D01*
X11757242Y3654976D01*
X11596823Y3606313D01*
X11471804Y3594000D01*
X11388196Y3594000D01*
X11263177Y3606313D01*
X11102758Y3654976D01*
X10954924Y3733995D01*
X10954922Y3733996D01*
X10825341Y3840341D01*
X10718996Y3969922D01*
X10710886Y3985094D01*
X10639976Y4117758D01*
X10591313Y4278177D01*
X10574883Y4445000D01*
X10591313Y4611823D01*
X10639976Y4772242D01*
X10718995Y4920076D01*
X10718996Y4920078D01*
X10825341Y5049659D01*
X10954922Y5156004D01*
X10970094Y5164114D01*
X11102758Y5235024D01*
X11263177Y5283687D01*
X11388196Y5296000D01*
X11471804Y5296000D01*
X11596823Y5283687D01*
X11596823Y5283687D01*
G37*
G36*
X19216823Y7823687D02*
G01*
X19377242Y7775024D01*
X19492033Y7713667D01*
X19525078Y7696004D01*
X19654659Y7589659D01*
X19761004Y7460078D01*
X19761005Y7460076D01*
X19840024Y7312242D01*
X19888687Y7151823D01*
X19905117Y6985000D01*
X19888687Y6818177D01*
X19840024Y6657758D01*
X19769114Y6525094D01*
X19761004Y6509922D01*
X19654659Y6380341D01*
X19525078Y6273996D01*
X19525076Y6273995D01*
X19377242Y6194976D01*
X19216823Y6146313D01*
X19091804Y6134000D01*
X19008196Y6134000D01*
X18883177Y6146313D01*
X18722758Y6194976D01*
X18574924Y6273995D01*
X18574922Y6273996D01*
X18445341Y6380341D01*
X18338996Y6509922D01*
X18330886Y6525094D01*
X18259976Y6657758D01*
X18211313Y6818177D01*
X18194883Y6985000D01*
X18211313Y7151823D01*
X18259976Y7312242D01*
X18338995Y7460076D01*
X18338996Y7460078D01*
X18445341Y7589659D01*
X18574922Y7696004D01*
X18607967Y7713667D01*
X18722758Y7775024D01*
X18883177Y7823687D01*
X19008196Y7836000D01*
X19091804Y7836000D01*
X19216823Y7823687D01*
X19216823Y7823687D01*
G37*
G36*
X11596823Y7823687D02*
G01*
X11757242Y7775024D01*
X11872033Y7713667D01*
X11905078Y7696004D01*
X12034659Y7589659D01*
X12141004Y7460078D01*
X12141005Y7460076D01*
X12220024Y7312242D01*
X12268687Y7151823D01*
X12285117Y6985000D01*
X12268687Y6818177D01*
X12220024Y6657758D01*
X12149114Y6525094D01*
X12141004Y6509922D01*
X12034659Y6380341D01*
X11905078Y6273996D01*
X11905076Y6273995D01*
X11757242Y6194976D01*
X11596823Y6146313D01*
X11471804Y6134000D01*
X11388196Y6134000D01*
X11263177Y6146313D01*
X11102758Y6194976D01*
X10954924Y6273995D01*
X10954922Y6273996D01*
X10825341Y6380341D01*
X10718996Y6509922D01*
X10710886Y6525094D01*
X10639976Y6657758D01*
X10591313Y6818177D01*
X10574883Y6985000D01*
X10591313Y7151823D01*
X10639976Y7312242D01*
X10718995Y7460076D01*
X10718996Y7460078D01*
X10825341Y7589659D01*
X10954922Y7696004D01*
X10987967Y7713667D01*
X11102758Y7775024D01*
X11263177Y7823687D01*
X11388196Y7836000D01*
X11471804Y7836000D01*
X11596823Y7823687D01*
X11596823Y7823687D01*
G37*
G36*
X34567395Y8534454D02*
G01*
X34740466Y8462766D01*
X34740467Y8462765D01*
X34896227Y8358690D01*
X35028690Y8226227D01*
X35077213Y8153607D01*
X35132766Y8070466D01*
X35204454Y7897395D01*
X35241000Y7713667D01*
X35241000Y7526333D01*
X35204454Y7342605D01*
X35132766Y7169534D01*
X35113877Y7141265D01*
X35028690Y7013773D01*
X34896227Y6881310D01*
X34817818Y6828919D01*
X34740466Y6777234D01*
X34567395Y6705546D01*
X34383667Y6669000D01*
X34196333Y6669000D01*
X34012605Y6705546D01*
X33839534Y6777234D01*
X33762182Y6828919D01*
X33683773Y6881310D01*
X33551310Y7013773D01*
X33466123Y7141265D01*
X33447234Y7169534D01*
X33375546Y7342605D01*
X33339000Y7526333D01*
X33339000Y7713667D01*
X33375546Y7897395D01*
X33447234Y8070466D01*
X33502787Y8153607D01*
X33551310Y8226227D01*
X33683773Y8358690D01*
X33839533Y8462765D01*
X33839534Y8462766D01*
X34012605Y8534454D01*
X34196333Y8571000D01*
X34383667Y8571000D01*
X34567395Y8534454D01*
X34567395Y8534454D01*
G37*
G36*
X37781000Y6669000D02*
G01*
X35879000Y6669000D01*
X35879000Y8571000D01*
X37781000Y8571000D01*
X37781000Y6669000D01*
X37781000Y6669000D01*
G37*
G36*
X25473665Y8367378D02*
G01*
X25547222Y8360133D01*
X25688786Y8317190D01*
X25819252Y8247454D01*
X25849040Y8223008D01*
X25933607Y8153607D01*
X26001837Y8070466D01*
X26027454Y8039252D01*
X26097190Y7908786D01*
X26140133Y7767222D01*
X26154633Y7620000D01*
X26140133Y7472778D01*
X26097190Y7331214D01*
X26027454Y7200748D01*
X26003008Y7170960D01*
X25933607Y7086393D01*
X25873004Y7036659D01*
X25819252Y6992546D01*
X25688786Y6922810D01*
X25547222Y6879867D01*
X25473665Y6872622D01*
X25436888Y6869000D01*
X25363112Y6869000D01*
X25326335Y6872622D01*
X25252778Y6879867D01*
X25111214Y6922810D01*
X24980748Y6992546D01*
X24926996Y7036659D01*
X24866393Y7086393D01*
X24796992Y7170960D01*
X24772546Y7200748D01*
X24702810Y7331214D01*
X24659867Y7472778D01*
X24645367Y7620000D01*
X24659867Y7767222D01*
X24702810Y7908786D01*
X24772546Y8039252D01*
X24798163Y8070466D01*
X24866393Y8153607D01*
X24950960Y8223008D01*
X24980748Y8247454D01*
X25111214Y8317190D01*
X25252778Y8360133D01*
X25326335Y8367378D01*
X25363112Y8371000D01*
X25436888Y8371000D01*
X25473665Y8367378D01*
X25473665Y8367378D01*
G37*
G36*
X30699059Y8342140D02*
G01*
X30759294Y8317190D01*
X30835732Y8285528D01*
X30958735Y8203340D01*
X31063340Y8098735D01*
X31145528Y7975732D01*
X31145529Y7975730D01*
X31202140Y7839059D01*
X31231000Y7693968D01*
X31231000Y7546032D01*
X31202140Y7400941D01*
X31145528Y7264268D01*
X31063340Y7141265D01*
X30958735Y7036660D01*
X30835732Y6954472D01*
X30835731Y6954471D01*
X30835730Y6954471D01*
X30699059Y6897860D01*
X30553968Y6869000D01*
X30406032Y6869000D01*
X30260941Y6897860D01*
X30124270Y6954471D01*
X30124269Y6954471D01*
X30124268Y6954472D01*
X30001265Y7036660D01*
X29896660Y7141265D01*
X29814472Y7264268D01*
X29757860Y7400941D01*
X29729000Y7546032D01*
X29729000Y7693968D01*
X29757860Y7839059D01*
X29814471Y7975730D01*
X29814472Y7975732D01*
X29896660Y8098735D01*
X30001265Y8203340D01*
X30124268Y8285528D01*
X30200707Y8317190D01*
X30260941Y8342140D01*
X30406032Y8371000D01*
X30553968Y8371000D01*
X30699059Y8342140D01*
X30699059Y8342140D01*
G37*
G36*
X11596823Y10363687D02*
G01*
X11757242Y10315024D01*
X11889906Y10244114D01*
X11905078Y10236004D01*
X12034659Y10129659D01*
X12141004Y10000078D01*
X12141005Y10000076D01*
X12220024Y9852242D01*
X12268687Y9691823D01*
X12285117Y9525000D01*
X12268687Y9358177D01*
X12220024Y9197758D01*
X12149114Y9065094D01*
X12141004Y9049922D01*
X12034659Y8920341D01*
X11905078Y8813996D01*
X11905076Y8813995D01*
X11757242Y8734976D01*
X11596823Y8686313D01*
X11471804Y8674000D01*
X11388196Y8674000D01*
X11263177Y8686313D01*
X11102758Y8734976D01*
X10954924Y8813995D01*
X10954922Y8813996D01*
X10825341Y8920341D01*
X10718996Y9049922D01*
X10710886Y9065094D01*
X10639976Y9197758D01*
X10591313Y9358177D01*
X10574883Y9525000D01*
X10591313Y9691823D01*
X10639976Y9852242D01*
X10718995Y10000076D01*
X10718996Y10000078D01*
X10825341Y10129659D01*
X10954922Y10236004D01*
X10970094Y10244114D01*
X11102758Y10315024D01*
X11263177Y10363687D01*
X11388196Y10376000D01*
X11471804Y10376000D01*
X11596823Y10363687D01*
X11596823Y10363687D01*
G37*
G36*
X19216823Y10363687D02*
G01*
X19377242Y10315024D01*
X19509906Y10244114D01*
X19525078Y10236004D01*
X19654659Y10129659D01*
X19761004Y10000078D01*
X19761005Y10000076D01*
X19840024Y9852242D01*
X19888687Y9691823D01*
X19905117Y9525000D01*
X19888687Y9358177D01*
X19840024Y9197758D01*
X19769114Y9065094D01*
X19761004Y9049922D01*
X19654659Y8920341D01*
X19525078Y8813996D01*
X19525076Y8813995D01*
X19377242Y8734976D01*
X19216823Y8686313D01*
X19091804Y8674000D01*
X19008196Y8674000D01*
X18883177Y8686313D01*
X18722758Y8734976D01*
X18574924Y8813995D01*
X18574922Y8813996D01*
X18445341Y8920341D01*
X18338996Y9049922D01*
X18330886Y9065094D01*
X18259976Y9197758D01*
X18211313Y9358177D01*
X18194883Y9525000D01*
X18211313Y9691823D01*
X18259976Y9852242D01*
X18338995Y10000076D01*
X18338996Y10000078D01*
X18445341Y10129659D01*
X18574922Y10236004D01*
X18590094Y10244114D01*
X18722758Y10315024D01*
X18883177Y10363687D01*
X19008196Y10376000D01*
X19091804Y10376000D01*
X19216823Y10363687D01*
X19216823Y10363687D01*
G37*
G36*
X19216823Y12903687D02*
G01*
X19377242Y12855024D01*
X19492033Y12793667D01*
X19525078Y12776004D01*
X19654659Y12669659D01*
X19761004Y12540078D01*
X19761005Y12540076D01*
X19840024Y12392242D01*
X19888687Y12231823D01*
X19905117Y12065000D01*
X19888687Y11898177D01*
X19840024Y11737758D01*
X19769114Y11605094D01*
X19761004Y11589922D01*
X19654659Y11460341D01*
X19525078Y11353996D01*
X19525076Y11353995D01*
X19377242Y11274976D01*
X19216823Y11226313D01*
X19091804Y11214000D01*
X19008196Y11214000D01*
X18883177Y11226313D01*
X18722758Y11274976D01*
X18574924Y11353995D01*
X18574922Y11353996D01*
X18445341Y11460341D01*
X18338996Y11589922D01*
X18330886Y11605094D01*
X18259976Y11737758D01*
X18211313Y11898177D01*
X18194883Y12065000D01*
X18211313Y12231823D01*
X18259976Y12392242D01*
X18338995Y12540076D01*
X18338996Y12540078D01*
X18445341Y12669659D01*
X18574922Y12776004D01*
X18607967Y12793667D01*
X18722758Y12855024D01*
X18883177Y12903687D01*
X19008196Y12916000D01*
X19091804Y12916000D01*
X19216823Y12903687D01*
X19216823Y12903687D01*
G37*
G36*
X12281000Y11214000D02*
G01*
X10579000Y11214000D01*
X10579000Y12916000D01*
X12281000Y12916000D01*
X12281000Y11214000D01*
X12281000Y11214000D01*
G37*
G36*
X34567395Y13614454D02*
G01*
X34740466Y13542766D01*
X34740467Y13542765D01*
X34896227Y13438690D01*
X35028690Y13306227D01*
X35077213Y13233607D01*
X35132766Y13150466D01*
X35204454Y12977395D01*
X35241000Y12793667D01*
X35241000Y12606333D01*
X35204454Y12422605D01*
X35132766Y12249534D01*
X35113877Y12221265D01*
X35028690Y12093773D01*
X34896227Y11961310D01*
X34817818Y11908919D01*
X34740466Y11857234D01*
X34567395Y11785546D01*
X34383667Y11749000D01*
X34196333Y11749000D01*
X34012605Y11785546D01*
X33839534Y11857234D01*
X33762182Y11908919D01*
X33683773Y11961310D01*
X33551310Y12093773D01*
X33466123Y12221265D01*
X33447234Y12249534D01*
X33375546Y12422605D01*
X33339000Y12606333D01*
X33339000Y12793667D01*
X33375546Y12977395D01*
X33447234Y13150466D01*
X33502787Y13233607D01*
X33551310Y13306227D01*
X33683773Y13438690D01*
X33839533Y13542765D01*
X33839534Y13542766D01*
X34012605Y13614454D01*
X34196333Y13651000D01*
X34383667Y13651000D01*
X34567395Y13614454D01*
X34567395Y13614454D01*
G37*
G36*
X37781000Y11749000D02*
G01*
X35879000Y11749000D01*
X35879000Y13651000D01*
X37781000Y13651000D01*
X37781000Y11749000D01*
X37781000Y11749000D01*
G37*
G36*
X30699059Y13422140D02*
G01*
X30759294Y13397190D01*
X30835732Y13365528D01*
X30958735Y13283340D01*
X31063340Y13178735D01*
X31145528Y13055732D01*
X31145529Y13055730D01*
X31202140Y12919059D01*
X31231000Y12773968D01*
X31231000Y12626032D01*
X31202140Y12480941D01*
X31145528Y12344268D01*
X31063340Y12221265D01*
X30958735Y12116660D01*
X30835732Y12034472D01*
X30835731Y12034471D01*
X30835730Y12034471D01*
X30699059Y11977860D01*
X30553968Y11949000D01*
X30406032Y11949000D01*
X30260941Y11977860D01*
X30124270Y12034471D01*
X30124269Y12034471D01*
X30124268Y12034472D01*
X30001265Y12116660D01*
X29896660Y12221265D01*
X29814472Y12344268D01*
X29757860Y12480941D01*
X29729000Y12626032D01*
X29729000Y12773968D01*
X29757860Y12919059D01*
X29814471Y13055730D01*
X29814472Y13055732D01*
X29896660Y13178735D01*
X30001265Y13283340D01*
X30124268Y13365528D01*
X30200707Y13397190D01*
X30260941Y13422140D01*
X30406032Y13451000D01*
X30553968Y13451000D01*
X30699059Y13422140D01*
X30699059Y13422140D01*
G37*
G36*
X25473665Y13447378D02*
G01*
X25547222Y13440133D01*
X25688786Y13397190D01*
X25819252Y13327454D01*
X25849040Y13303008D01*
X25933607Y13233607D01*
X26001837Y13150466D01*
X26027454Y13119252D01*
X26097190Y12988786D01*
X26140133Y12847222D01*
X26154633Y12700000D01*
X26140133Y12552778D01*
X26097190Y12411214D01*
X26027454Y12280748D01*
X26003008Y12250960D01*
X25933607Y12166393D01*
X25873004Y12116659D01*
X25819252Y12072546D01*
X25688786Y12002810D01*
X25547222Y11959867D01*
X25473665Y11952622D01*
X25436888Y11949000D01*
X25363112Y11949000D01*
X25326335Y11952622D01*
X25252778Y11959867D01*
X25111214Y12002810D01*
X24980748Y12072546D01*
X24926996Y12116659D01*
X24866393Y12166393D01*
X24796992Y12250960D01*
X24772546Y12280748D01*
X24702810Y12411214D01*
X24659867Y12552778D01*
X24645367Y12700000D01*
X24659867Y12847222D01*
X24702810Y12988786D01*
X24772546Y13119252D01*
X24798163Y13150466D01*
X24866393Y13233607D01*
X24950960Y13303008D01*
X24980748Y13327454D01*
X25111214Y13397190D01*
X25252778Y13440133D01*
X25326335Y13447378D01*
X25363112Y13451000D01*
X25436888Y13451000D01*
X25473665Y13447378D01*
X25473665Y13447378D01*
G37*
G36*
X34567395Y18694454D02*
G01*
X34740466Y18622766D01*
X34740467Y18622765D01*
X34896227Y18518690D01*
X35028690Y18386227D01*
X35077213Y18313607D01*
X35132766Y18230466D01*
X35204454Y18057395D01*
X35241000Y17873667D01*
X35241000Y17686333D01*
X35204454Y17502605D01*
X35132766Y17329534D01*
X35113877Y17301265D01*
X35028690Y17173773D01*
X34896227Y17041310D01*
X34855354Y17014000D01*
X34740466Y16937234D01*
X34567395Y16865546D01*
X34383667Y16829000D01*
X34196333Y16829000D01*
X34012605Y16865546D01*
X33839534Y16937234D01*
X33724646Y17014000D01*
X33683773Y17041310D01*
X33551310Y17173773D01*
X33466123Y17301265D01*
X33447234Y17329534D01*
X33375546Y17502605D01*
X33339000Y17686333D01*
X33339000Y17873667D01*
X33375546Y18057395D01*
X33447234Y18230466D01*
X33502787Y18313607D01*
X33551310Y18386227D01*
X33683773Y18518690D01*
X33839533Y18622765D01*
X33839534Y18622766D01*
X34012605Y18694454D01*
X34196333Y18731000D01*
X34383667Y18731000D01*
X34567395Y18694454D01*
X34567395Y18694454D01*
G37*
G36*
X37781000Y16829000D02*
G01*
X35879000Y16829000D01*
X35879000Y18731000D01*
X37781000Y18731000D01*
X37781000Y16829000D01*
X37781000Y16829000D01*
G37*
G36*
X7751000Y17014000D02*
G01*
X4949000Y17014000D01*
X4949000Y19816000D01*
X7751000Y19816000D01*
X7751000Y17014000D01*
X7751000Y17014000D01*
G37*
G36*
X30699059Y18502140D02*
G01*
X30759294Y18477190D01*
X30835732Y18445528D01*
X30958735Y18363340D01*
X31063340Y18258735D01*
X31145528Y18135732D01*
X31202140Y17999059D01*
X31231000Y17853967D01*
X31231000Y17706033D01*
X31202140Y17560941D01*
X31145528Y17424268D01*
X31063340Y17301265D01*
X30958735Y17196660D01*
X30835732Y17114472D01*
X30835731Y17114471D01*
X30835730Y17114471D01*
X30699059Y17057860D01*
X30553968Y17029000D01*
X30406032Y17029000D01*
X30260941Y17057860D01*
X30124270Y17114471D01*
X30124269Y17114471D01*
X30124268Y17114472D01*
X30001265Y17196660D01*
X29896660Y17301265D01*
X29814472Y17424268D01*
X29757860Y17560941D01*
X29729000Y17706033D01*
X29729000Y17853967D01*
X29757860Y17999059D01*
X29814472Y18135732D01*
X29896660Y18258735D01*
X30001265Y18363340D01*
X30124268Y18445528D01*
X30200707Y18477190D01*
X30260941Y18502140D01*
X30406032Y18531000D01*
X30553968Y18531000D01*
X30699059Y18502140D01*
X30699059Y18502140D01*
G37*
G36*
X25473665Y18527378D02*
G01*
X25547222Y18520133D01*
X25688786Y18477190D01*
X25819252Y18407454D01*
X25849040Y18383008D01*
X25933607Y18313607D01*
X26001837Y18230466D01*
X26027454Y18199252D01*
X26097190Y18068786D01*
X26140133Y17927222D01*
X26154633Y17780000D01*
X26140133Y17632778D01*
X26097190Y17491214D01*
X26027454Y17360748D01*
X26003008Y17330960D01*
X25933607Y17246393D01*
X25873004Y17196659D01*
X25819252Y17152546D01*
X25688786Y17082810D01*
X25547222Y17039867D01*
X25473665Y17032622D01*
X25436888Y17029000D01*
X25363112Y17029000D01*
X25326335Y17032622D01*
X25252778Y17039867D01*
X25111214Y17082810D01*
X24980748Y17152546D01*
X24926996Y17196659D01*
X24866393Y17246393D01*
X24796992Y17330960D01*
X24772546Y17360748D01*
X24702810Y17491214D01*
X24659867Y17632778D01*
X24645367Y17780000D01*
X24659867Y17927222D01*
X24702810Y18068786D01*
X24772546Y18199252D01*
X24798163Y18230466D01*
X24866393Y18313607D01*
X24950960Y18383008D01*
X24980748Y18407454D01*
X25111214Y18477190D01*
X25252778Y18520133D01*
X25326335Y18527378D01*
X25363112Y18531000D01*
X25436888Y18531000D01*
X25473665Y18527378D01*
X25473665Y18527378D01*
G37*
G36*
X37781000Y21274000D02*
G01*
X35879000Y21274000D01*
X35879000Y23176000D01*
X37781000Y23176000D01*
X37781000Y21274000D01*
X37781000Y21274000D01*
G37*
G36*
X34567395Y23139454D02*
G01*
X34740466Y23067766D01*
X34740467Y23067765D01*
X34896227Y22963690D01*
X35028690Y22831227D01*
X35044556Y22807481D01*
X35132766Y22675466D01*
X35204454Y22502395D01*
X35241000Y22318667D01*
X35241000Y22131333D01*
X35204454Y21947605D01*
X35132766Y21774534D01*
X35113877Y21746265D01*
X35028690Y21618773D01*
X34896227Y21486310D01*
X34836954Y21446705D01*
X34740466Y21382234D01*
X34567395Y21310546D01*
X34383667Y21274000D01*
X34196333Y21274000D01*
X34012605Y21310546D01*
X33839534Y21382234D01*
X33743046Y21446705D01*
X33683773Y21486310D01*
X33551310Y21618773D01*
X33466123Y21746265D01*
X33447234Y21774534D01*
X33375546Y21947605D01*
X33339000Y22131333D01*
X33339000Y22318667D01*
X33375546Y22502395D01*
X33447234Y22675466D01*
X33535444Y22807481D01*
X33551310Y22831227D01*
X33683773Y22963690D01*
X33839533Y23067765D01*
X33839534Y23067766D01*
X34012605Y23139454D01*
X34196333Y23176000D01*
X34383667Y23176000D01*
X34567395Y23139454D01*
X34567395Y23139454D01*
G37*
G36*
X16768228Y23083297D02*
G01*
X16923100Y23019147D01*
X17062481Y22926015D01*
X17181015Y22807481D01*
X17274147Y22668100D01*
X17338297Y22513228D01*
X17371000Y22348816D01*
X17371000Y22181184D01*
X17338297Y22016772D01*
X17274147Y21861900D01*
X17181015Y21722519D01*
X17062481Y21603985D01*
X16923100Y21510853D01*
X16768228Y21446703D01*
X16603816Y21414000D01*
X16436184Y21414000D01*
X16271772Y21446703D01*
X16116900Y21510853D01*
X15977519Y21603985D01*
X15858985Y21722519D01*
X15765853Y21861900D01*
X15701703Y22016772D01*
X15669000Y22181184D01*
X15669000Y22348816D01*
X15701703Y22513228D01*
X15765853Y22668100D01*
X15858985Y22807481D01*
X15977519Y22926015D01*
X16116900Y23019147D01*
X16271772Y23083297D01*
X16436184Y23116000D01*
X16603816Y23116000D01*
X16768228Y23083297D01*
X16768228Y23083297D01*
G37*
G36*
X25473665Y22972378D02*
G01*
X25547222Y22965133D01*
X25688786Y22922190D01*
X25819252Y22852454D01*
X25849040Y22828008D01*
X25933607Y22758607D01*
X26001837Y22675466D01*
X26027454Y22644252D01*
X26097190Y22513786D01*
X26140133Y22372222D01*
X26154633Y22225000D01*
X26140133Y22077778D01*
X26097190Y21936214D01*
X26027454Y21805748D01*
X26003008Y21775960D01*
X25933607Y21691393D01*
X25873004Y21641659D01*
X25819252Y21597546D01*
X25688786Y21527810D01*
X25547222Y21484867D01*
X25473665Y21477622D01*
X25436888Y21474000D01*
X25363112Y21474000D01*
X25326335Y21477622D01*
X25252778Y21484867D01*
X25111214Y21527810D01*
X24980748Y21597546D01*
X24926996Y21641659D01*
X24866393Y21691393D01*
X24796992Y21775960D01*
X24772546Y21805748D01*
X24702810Y21936214D01*
X24659867Y22077778D01*
X24645367Y22225000D01*
X24659867Y22372222D01*
X24702810Y22513786D01*
X24772546Y22644252D01*
X24798163Y22675466D01*
X24866393Y22758607D01*
X24950960Y22828008D01*
X24980748Y22852454D01*
X25111214Y22922190D01*
X25252778Y22965133D01*
X25326335Y22972378D01*
X25363112Y22976000D01*
X25436888Y22976000D01*
X25473665Y22972378D01*
X25473665Y22972378D01*
G37*
G36*
X30699059Y22947140D02*
G01*
X30759294Y22922190D01*
X30835732Y22890528D01*
X30958735Y22808340D01*
X31063340Y22703735D01*
X31145528Y22580732D01*
X31202140Y22444059D01*
X31231000Y22298967D01*
X31231000Y22151033D01*
X31202140Y22005941D01*
X31145528Y21869268D01*
X31063340Y21746265D01*
X30958735Y21641660D01*
X30835732Y21559472D01*
X30835731Y21559471D01*
X30835730Y21559471D01*
X30699059Y21502860D01*
X30553968Y21474000D01*
X30406032Y21474000D01*
X30260941Y21502860D01*
X30124270Y21559471D01*
X30124269Y21559471D01*
X30124268Y21559472D01*
X30001265Y21641660D01*
X29896660Y21746265D01*
X29814472Y21869268D01*
X29757860Y22005941D01*
X29729000Y22151033D01*
X29729000Y22298967D01*
X29757860Y22444059D01*
X29814472Y22580732D01*
X29896660Y22703735D01*
X30001265Y22808340D01*
X30124268Y22890528D01*
X30200707Y22922190D01*
X30260941Y22947140D01*
X30406032Y22976000D01*
X30553968Y22976000D01*
X30699059Y22947140D01*
X30699059Y22947140D01*
G37*
G36*
X3493433Y28670107D02*
G01*
X3583657Y28652161D01*
X3689267Y28608415D01*
X3838621Y28546551D01*
X3838622Y28546550D01*
X4068086Y28393228D01*
X4263228Y28198086D01*
X4365675Y28044763D01*
X4416551Y27968621D01*
X4522161Y27713656D01*
X4576000Y27442988D01*
X4576000Y27167012D01*
X4522161Y26896344D01*
X4416551Y26641379D01*
X4416550Y26641378D01*
X4263228Y26411914D01*
X4068086Y26216772D01*
X3914763Y26114325D01*
X3838621Y26063449D01*
X3689267Y26001585D01*
X3583657Y25957839D01*
X3493433Y25939893D01*
X3312988Y25904000D01*
X3037012Y25904000D01*
X2856567Y25939893D01*
X2766343Y25957839D01*
X2660733Y26001585D01*
X2511379Y26063449D01*
X2435237Y26114325D01*
X2281914Y26216772D01*
X2086772Y26411914D01*
X1933450Y26641378D01*
X1933449Y26641379D01*
X1827839Y26896344D01*
X1774000Y27167012D01*
X1774000Y27442988D01*
X1827839Y27713656D01*
X1933449Y27968621D01*
X1984325Y28044763D01*
X2086772Y28198086D01*
X2281914Y28393228D01*
X2511378Y28546550D01*
X2511379Y28546551D01*
X2660733Y28608415D01*
X2766343Y28652161D01*
X2856567Y28670107D01*
X3037012Y28706000D01*
X3312988Y28706000D01*
X3493433Y28670107D01*
X3493433Y28670107D01*
G37*
M02*
