M48
; DRILL file {KiCad (5.1.2)-1} date 5/12/2019 8:46:56 PM
; FORMAT={-:-/ absolute / inch / decimal}
; #@! TF.CreationDate,2019-05-12T20:46:56-04:00
; #@! TF.GenerationSoftware,Kicad,Pcbnew,(5.1.2)-1
FMAT,2
INCH
T1C0.0276
T2C0.0315
T3C0.0354
T4C0.0429
T5C0.0835
T6C0.1063
%
G90
G05
T1
X1.0Y0.7
X1.2Y0.7
X1.0Y0.3
X1.2Y0.3
X1.0Y0.5
X1.2Y0.5
X1.0Y0.875
X1.2Y0.875
T2
X0.45Y0.475
X0.45Y0.375
X0.45Y0.275
X0.45Y0.175
X0.75Y0.475
X0.75Y0.375
X0.75Y0.275
X0.75Y0.175
T3
X1.35Y0.875
X1.45Y0.875
X1.35Y0.5
X1.45Y0.5
X1.35Y0.7
X1.45Y0.7
X1.35Y0.3
X1.45Y0.3
T4
X0.6504Y0.8766
T5
X0.25Y0.725
T6
X0.125Y1.075
T0
M30
